<?xml version="1.0" encoding="UTF-8"?><svg id="_レイヤー_1" xmlns="http://www.w3.org/2000/svg" viewBox="0 0 337.44 337.44"><defs><style>.cls-1{fill:none;stroke:#5e9464;stroke-miterlimit:10;stroke-width:5.02px;}.cls-2{fill:#5e9464;stroke-width:0px;}</style></defs><path class="cls-2" d="M174.72,196.41h27.42c5.07-5.85,5.85-6.24,6.5-6.24s1.69.52,7.02,4.94c2.47,1.95,2.86,2.6,2.86,3.38s-.52,1.17-1.82,1.17h-41.98v18.72h37.82c5.59-6.37,6.24-6.76,6.89-6.76.78,0,1.56.52,7.41,5.2,2.6,2.08,2.86,2.73,2.86,3.51s-.39,1.3-1.69,1.3h-102.94c-3.38,0-5.46.13-8.84.78l-1.3-4.94c3.9.65,6.37.91,10.01.91h41.85v-18.72h-29.5c-3.12,0-5.07.13-8.45.78l-1.3-4.94c3.77.78,5.98.91,9.62.91h29.63v-17.55h-19.11v1.69c0,2.6-1.56,3.38-4.81,3.38-2.34,0-3.25-.65-3.25-2.6,0-1.56.26-5.07.26-17.81,0-7.41,0-10.01-.52-15.6,3.51,1.43,6.5,2.99,9.36,4.68h45.88c3.51-3.77,4.03-4.03,4.68-4.03.78,0,1.43.26,5.2,3.25,2.08,1.56,2.21,2.47,2.21,3.12s-.52,1.43-3.38,3.25v5.85c0,11.44.26,15.47.26,16.51,0,2.6-1.56,3.38-4.68,3.38-2.34,0-3.25-.52-3.25-2.73v-2.34h-20.93v17.55ZM167.57,135.97v-15.86c0-4.29,0-6.89-.52-11.7,11.44,1.43,13,2.21,13,3.64,0,.91-.78,1.82-4.55,3.38v20.54h12.87c3.25-4.94,5.98-9.75,8.06-14.3,1.56-3.38,2.6-6.24,3.38-9.1,8.97,3.51,11.05,4.94,11.05,6.24,0,1.43-1.17,2.08-5.2,2.21-4.55,5.72-8.06,9.88-13.78,14.95h23.27c4.16-4.68,4.68-4.94,5.46-4.94.91,0,1.82.52,6.63,4.81,2.47,2.21,2.73,2.99,2.73,3.64,0,1.43-1.56,2.08-4.55,2.08-1.56,0-2.6.39-4.29,2.08-2.86,2.73-4.94,4.55-9.1,7.67-.65.52-1.56-.26-1.17-.91,1.95-3.51,3.38-6.89,4.81-11.18h-85.78c-.26,10.27-4.68,16.77-10.01,16.77-2.86,0-4.68-1.82-4.68-4.55,0-1.95,1.04-3.38,3.25-4.68,5.85-3.38,8.58-8.19,9.23-15.99.13-.78,1.43-.78,1.56,0,.26,1.82.52,3.51.65,5.2h37.69ZM138.85,113.49c9.36,3.64,14.3,9.36,14.3,14.04,0,3.38-1.95,5.46-4.68,5.46-1.95,0-2.99-1.17-3.77-4.68-1.17-5.2-3.51-9.75-6.89-13.78-.52-.52.26-1.3,1.04-1.04ZM195.65,155.86h-47.96v19.76h47.96v-19.76Z"/><circle class="cls-1" cx="168.72" cy="168.72" r="166.21"/><path class="cls-2" d="M86.29,65.39h0c9.29,0,16.84,7.54,16.84,16.84v69.22h0c-9.29,0-16.84-7.54-16.84-16.84v-69.22h0Z"/><path class="cls-2" d="M257.59,179.38h0v69.22c0,9.29-7.54,16.84-16.84,16.84h0v-69.22c0-9.29,7.54-16.84,16.84-16.84Z"/></svg>