<?xml version="1.0" encoding="UTF-8"?><svg id="_レイヤー_1" xmlns="http://www.w3.org/2000/svg" viewBox="0 0 433.76 297.24"><defs><style>.cls-1{fill:none;stroke:#5e9464;stroke-miterlimit:10;stroke-width:5px;}.cls-2{fill:#5e9464;stroke-width:0px;}</style></defs><path class="cls-2" d="M109.01,107.02c-1.58-.14-3.02-.43-3.02-2.01,0-3.02,6.04-6.04,14.09-6.04,18.83,0,32.78,16.1,32.78,38.53,0,30.62-25.88,63.97-60.95,63.97-22.57,0-43.41-13.94-43.41-43.84,0-39.82,36.8-71.73,70.15-71.73,11.79,0,21.85,4.02,21.85,9.2,0,1.15-.57,2.01-1.58,2.01-2.16,0-6.04-2.59-15.96-2.59-29.33,0-51.9,30.76-51.9,61.53,0,22.28,11.79,34.93,26.31,34.93,20.99,0,38.09-22.14,38.09-50.46,0-17.39-7.91-31.77-26.45-33.49Z"/><path class="cls-2" d="M197.28,85.02c7.04,0,10.64,5.89,10.64,14.52,0,15.96-15.81,38.96-32.63,52.9-1.29,5.03-2.3,10.21-2.88,15.09,7.91-14.81,20.99-34.64,31.77-34.64,4.02,0,8.19,2.73,8.19,10.06,0,11.5-8.77,22.57-8.77,29.18,0,2.16,1.15,3.45,2.44,3.45,2.01,0,5.89-.43,15.67-14.38.58-.86,1.44-1.29,2.16-1.29,1.01,0,1.87.86,1.87,2.16,0,.72-.14,1.44-.72,2.44-10.78,19.41-18.69,24.01-25.73,24.01s-11.5-5.17-11.5-12.65c0-9.92,6.61-22.43,6.61-25.88,0-.72-.29-1.15-.86-1.15-3.31,0-12.22,12.08-17.25,25.44-3.16,8.48-4.03,14.23-8.77,14.23-5.03,0-7.91-2.88-9.63-7.19-.72-1.87-1.15-6.33-1.15-10.06,0-3.45.58-8.91,1.58-14.38,5.75-30.19,22.14-71.88,38.96-71.88ZM177.87,143.39c11.5-12.65,19.84-27.03,19.84-35.22,0-1.01-.14-2.3-1.58-2.3-3.74,0-12.36,17.54-18.26,37.52Z"/><path class="cls-2" d="M234.66,156.32c-2.59-5.89-5.75-11.79-5.75-16.82,0-6.47,5.03-13.94,12.22-13.94,4.89,0,6.76,3.45,6.76,7.19s-2.01,8.62-5.32,12.22c2.16,3.45,5.03,6.61,7.33,10.06,11.93-1.01,18.26-5.17,23-8.77,1.01-.72,1.87-1.01,2.59-1.01.86,0,1.58.43,1.58,1.44,0,.72-.43,1.72-1.29,2.88-3.59,4.6-13.23,9.63-22.86,11.5.57,1.87,1.01,3.88,1.01,6.18,0,11.64-9.78,21.42-24.01,21.42-11.93,0-17.54-6.76-17.54-13.94,0-9.34,9.2-16.82,22.28-18.4ZM237.24,162.65c-8.19,1.44-12.36,6.61-12.36,11.64,0,3.74,2.3,6.61,5.75,6.61,4.46,0,8.05-4.46,8.05-10.78,0-2.44-.57-5.03-1.44-7.48Z"/><path class="cls-2" d="M290.29,182.49c-5.03,4.6-9.92,6.04-14.66,6.04-9.2,0-16.53-6.76-16.53-18.54,0-18.83,16.1-37.09,32.92-37.09,7.62,0,13.08,4.6,13.08,9.2,0,.58-.14,1.01-.14,1.01,0,0,.58-.14,1.15-.14,3.02,0,5.32,2.73,5.32,6.33,0,7.91-5.89,17.54-9.2,22.57.43,2.59,1.58,3.88,3.02,3.88,2.01,0,5.89-.58,15.67-14.52.58-.86,1.44-1.29,2.16-1.29,1.01,0,1.87.86,1.87,2.16,0,.72-.14,1.44-.72,2.44-10.78,19.41-17.83,23.43-24.58,23.43-4.31,0-7.48-2.01-9.34-5.46ZM288.28,174.87v-1.73c0-7.47,2.44-15.96,6.33-22.14-1.58-.29-3.02-.86-3.02-1.73,0-1.29,1.15-2.01,1.15-4.31,0-2.59-1.29-4.17-3.74-4.17-5.46,0-14.23,10.35-14.23,24.87,0,7.47,3.16,11.64,7.76,11.64,2.44,0,4.31-1.01,5.75-2.44Z"/><path class="cls-2" d="M354.98,134.19c7.62-26.16,19.26-49.16,31.91-49.16,4.89,0,8.77,4.6,8.77,13.23,0,12.08-12.94,46-31.19,68.14v.72c0,6.32,1.72,9.77,4.89,9.77,2.73,0,7.91-1.72,17.68-15.67.58-.86,1.44-1.29,2.16-1.29,1.01,0,1.87.86,1.87,2.16,0,.72-.14,1.44-.72,2.44-5.32,9.63-10.21,15.53-14.95,19.12-4.74,3.74-9.2,4.89-13.22,4.89-4.89,0-8.91-3.16-10.93-8.19-5.61,6.04-11.5,8.19-16.96,8.19-9.63,0-16.96-6.76-16.96-18.83,0-18.83,15.24-36.8,31.34-36.8,2.44,0,4.46.43,6.33,1.29ZM349.37,173.14c-.29-2.16-.43-4.46-.43-6.76,0-3.45.43-9.49,1.58-14.95,0-.29.14-.57.14-.86-.86-.29-1.44-.72-1.44-1.29,0-1.29,1.15-2.01,1.15-4.31,0-2.59-1.29-4.17-3.74-4.17-5.46,0-13.66,10.35-13.66,24.87,0,7.33,3.16,11.64,7.33,11.64,3.59,0,6.76-2.01,9.06-4.17ZM365.47,155.89c12.08-18.26,21.42-41.69,21.42-48.73,0-1.73-.58-2.88-2.01-2.88-4.6,0-15.96,29.9-19.41,51.61Z"/><path class="cls-2" d="M404.14,138.35c2.01-5.46,7.33-8.62,12.94-8.62,8.91,0,16.67,8.34,16.67,22.42,0,17.25-12.36,36.37-30.91,36.37-12.51,0-19.26-8.77-19.26-19.69,0-14.81,12.36-27.31,20.56-30.48ZM417.8,143.82c-2.01,0-3.02,1.72-3.02,4.46,0,1.29.43,2.16.43,2.73,0,1.01-1.15,1.87-2.88,1.87-2.73,0-6.33-2.01-8.05-5.61-3.16,4.02-5.61,10.64-5.61,17.11,0,7.47,3.45,13.66,9.78,13.66,8.77,0,14.66-11.5,14.66-22.86,0-8.19-3.16-11.36-5.32-11.36Z"/><path class="cls-1" d="M270.26,229.62c-26.2,39.26-70.9,65.12-121.63,65.12C67.92,294.74,2.5,229.32,2.5,148.62S67.92,2.5,148.62,2.5c50.44,0,94.91,25.55,121.17,64.42"/></svg>