<svg width="20" height="21" viewBox="0 0 20 21" fill="none" xmlns="http://www.w3.org/2000/svg">
<path d="M17.2581 16.5059L14.4248 13.6809C15.3389 12.5163 15.8349 11.0781 15.8331 9.59758C15.8331 8.27904 15.4421 6.9901 14.7096 5.89378C13.977 4.79745 12.9358 3.94297 11.7176 3.43838C10.4995 2.9338 9.15903 2.80177 7.86582 3.05901C6.57262 3.31624 5.38473 3.95118 4.45238 4.88353C3.52003 5.81588 2.88509 7.00377 2.62786 8.29698C2.37062 9.59018 2.50264 10.9306 3.00723 12.1488C3.51181 13.367 4.3663 14.4082 5.46262 15.1407C6.55895 15.8733 7.84788 16.2642 9.16643 16.2642C10.647 16.2661 12.0851 15.7701 13.2498 14.8559L16.0748 17.6892C16.1522 17.7674 16.2444 17.8293 16.3459 17.8717C16.4475 17.914 16.5564 17.9357 16.6664 17.9357C16.7764 17.9357 16.8854 17.914 16.9869 17.8717C17.0885 17.8293 17.1806 17.7674 17.2581 17.6892C17.3362 17.6118 17.3982 17.5196 17.4405 17.4181C17.4828 17.3165 17.5046 17.2076 17.5046 17.0976C17.5046 16.9876 17.4828 16.8786 17.4405 16.7771C17.3982 16.6755 17.3362 16.5834 17.2581 16.5059ZM4.16643 9.59758C4.16643 8.60867 4.45967 7.64197 5.00908 6.81973C5.55848 5.99748 6.33938 5.35662 7.25301 4.97818C8.16664 4.59974 9.17197 4.50073 10.1419 4.69365C11.1118 4.88658 12.0027 5.36278 12.702 6.06204C13.4012 6.76131 13.8774 7.65222 14.0704 8.62213C14.2633 9.59203 14.1643 10.5974 13.7858 11.511C13.4074 12.4246 12.7665 13.2055 11.9443 13.7549C11.122 14.3043 10.1553 14.5976 9.16643 14.5976C7.84034 14.5976 6.56857 14.0708 5.63089 13.1331C4.69321 12.1954 4.16643 10.9237 4.16643 9.59758Z" fill="#1E1E1E"/>
</svg>
